<svg width="735" height="425" viewBox="0 0 735 425" fill="none" xmlns="http://www.w3.org/2000/svg">
<path d="M130.395 325.823L88.5928 74.6103C86.9543 64.7632 99.1695 58.8571 105.87 66.2568L214.781 186.535C222.958 195.565 210.944 208.597 201.28 201.18L176.088 181.847C169.51 176.799 160 181.488 160 189.78V253.213C160 263.086 172.788 266.986 178.298 258.794L198 229.5L149.232 328.597C144.941 337.316 131.99 335.409 130.395 325.823Z" fill="black"/>
<path d="M296.267 115.892L361.815 344.918C364.69 354.966 352.169 362.134 344.961 354.568L228.731 232.565C220.233 223.644 232.243 210.243 242.038 217.717L268.934 238.24C275.515 243.263 285 238.569 285 230.29V155.91C285 145.782 271.674 142.071 266.439 150.741L237 199.5L277.628 114.338C281.593 106.027 293.733 107.039 296.267 115.892Z" fill="black"/>
<circle cx="222" cy="209" r="12" fill="black"/>
<circle cx="237" cy="205" r="2" fill="black"/>
<circle cx="224" cy="190" r="4" fill="black"/>
<circle cx="205" cy="214" r="2" fill="black"/>
<ellipse cx="236.73" cy="178.767" rx="1" ry="23.5" transform="rotate(24.7044 236.73 178.767)" fill="black"/>
<ellipse cx="207.46" cy="236.44" rx="1" ry="23.5" transform="rotate(26.7214 207.46 236.44)" fill="black"/>
<path d="M455.944 130.872C455.944 126.776 458.461 124.728 463.496 124.728C468.531 124.728 471.048 126.776 471.048 130.872V219.192C471.048 222.179 469.469 224.355 466.312 225.72H466.44C465.075 226.317 463.624 226.787 462.088 227.128C460.552 227.469 459.059 227.64 457.608 227.64C456.499 227.64 455.347 227.512 454.152 227.256C452.957 227.085 451.805 226.787 450.696 226.36C449.672 225.848 448.691 225.208 447.752 224.44C446.899 223.587 446.216 222.563 445.704 221.368L417.928 152.12L414.472 152.504V221.624C414.472 225.72 411.912 227.768 406.792 227.768C401.757 227.768 399.24 225.72 399.24 221.624V133.432C399.24 129.933 400.776 127.587 403.848 126.392C406.664 125.283 409.651 124.728 412.808 124.728C415.027 124.728 417.245 125.197 419.464 126.136C421.768 126.989 423.517 128.653 424.712 131.128L452.36 200.504L455.944 200.12V130.872ZM529.923 149.944C532.142 149.944 534.403 150.413 536.707 151.352C539.096 152.291 541.4 153.485 543.619 154.936H543.491C545.71 156.557 547.416 158.691 548.611 161.336C549.806 163.896 550.403 166.883 550.403 170.296V206.648C550.403 213.645 548.099 218.808 543.491 222.136C538.968 225.379 534.446 227 529.923 227H509.443C507.224 227 504.963 226.616 502.659 225.848C500.355 225.08 498.094 223.843 495.875 222.136C491.267 218.893 488.963 213.731 488.963 206.648V170.296C488.963 166.883 489.56 163.896 490.755 161.336C491.95 158.691 493.656 156.557 495.875 154.936H495.747C497.88 153.485 500.142 152.291 502.531 151.352C504.92 150.413 507.224 149.944 509.443 149.944H529.923ZM527.619 214.968C530.776 214.968 532.995 214.072 534.275 212.28C535.64 210.488 536.323 208.568 536.323 206.52V170.424C536.323 168.291 535.64 166.371 534.275 164.664C532.995 162.872 530.776 161.976 527.619 161.976H511.747C508.59 161.976 506.328 162.872 504.963 164.664C503.683 166.371 503.043 168.291 503.043 170.424V206.52C503.043 208.568 503.683 210.488 504.963 212.28C506.328 214.072 508.59 214.968 511.747 214.968H527.619ZM581.052 221.624C581.052 225.72 578.705 227.768 574.012 227.768C569.233 227.768 566.844 225.72 566.844 221.624V155.576C566.844 151.48 569.233 149.432 574.012 149.432C578.705 149.432 581.052 151.48 581.052 155.576V221.624ZM583.74 133.304C583.74 136.035 582.801 138.339 580.924 140.216C579.047 142.093 576.743 143.032 574.012 143.032C571.281 143.032 568.935 142.093 566.972 140.216C565.095 138.339 564.156 136.035 564.156 133.304C564.156 130.488 565.095 128.141 566.972 126.264C568.935 124.387 571.281 123.448 574.012 123.448C576.743 123.448 579.047 124.387 580.924 126.264C582.801 128.141 583.74 130.488 583.74 133.304ZM640.438 182.2C642.571 182.2 644.833 182.712 647.222 183.736C649.697 184.675 652.001 185.869 654.134 187.32H654.006C656.225 188.941 657.931 191.032 659.126 193.592C660.321 196.152 660.918 199.224 660.918 202.808V206.648C660.918 213.645 658.614 218.808 654.006 222.136C651.787 223.843 649.526 225.08 647.222 225.848C644.918 226.616 642.657 227 640.438 227H618.678C616.459 227 614.198 226.616 611.894 225.848C609.59 225.08 607.329 223.843 605.11 222.136C600.502 218.893 598.198 213.731 598.198 206.648V205.112C598.198 201.443 600.545 199.651 605.238 199.736C610.017 199.736 612.406 201.528 612.406 205.112V206.52C612.406 208.568 613.046 210.488 614.326 212.28C615.606 214.072 617.867 214.968 621.11 214.968H638.006C641.249 214.968 643.51 214.072 644.79 212.28C646.07 210.488 646.71 208.568 646.71 206.52V202.936C646.71 201.827 646.539 200.76 646.198 199.736C645.942 198.712 645.473 197.816 644.79 197.048C644.107 196.195 643.211 195.512 642.102 195C640.993 194.488 639.627 194.232 638.006 194.232H619.318C614.966 194.232 610.401 192.696 605.622 189.624C601.099 186.723 598.838 181.731 598.838 174.648V170.296C598.838 166.883 599.435 163.896 600.63 161.336C601.825 158.691 603.531 156.557 605.75 154.936H605.622C607.755 153.485 610.017 152.291 612.406 151.352C614.795 150.413 617.099 149.944 619.318 149.944H639.798C642.017 149.944 644.278 150.413 646.582 151.352C648.971 152.291 651.275 153.485 653.494 154.936H653.366C655.585 156.557 657.291 158.691 658.486 161.336C659.681 163.896 660.278 166.883 660.278 170.296V171.448C660.278 173.24 659.681 174.563 658.486 175.416C657.291 176.184 655.542 176.611 653.238 176.696C648.545 176.781 646.198 175.032 646.198 171.448V170.424C646.198 168.291 645.515 166.371 644.15 164.664C642.87 162.872 640.651 161.976 637.494 161.976H621.622C618.465 161.976 616.203 162.872 614.838 164.664C613.558 166.371 612.918 168.291 612.918 170.424V173.496C612.918 175.715 613.558 177.72 614.838 179.512C616.203 181.304 618.465 182.2 621.622 182.2H640.438Z" fill="black"/>
<path d="M419.104 249.952C419.104 248.416 420.048 247.648 421.936 247.648C423.824 247.648 424.768 248.416 424.768 249.952V283.072C424.768 284.192 424.176 285.008 422.992 285.52H423.04C422.528 285.744 421.984 285.92 421.408 286.048C420.832 286.176 420.272 286.24 419.728 286.24C419.312 286.24 418.88 286.192 418.432 286.096C417.984 286.032 417.552 285.92 417.136 285.76C416.752 285.568 416.384 285.328 416.032 285.04C415.712 284.72 415.456 284.336 415.264 283.888L404.848 257.92L403.552 258.064V283.984C403.552 285.52 402.592 286.288 400.672 286.288C398.784 286.288 397.84 285.52 397.84 283.984V250.912C397.84 249.6 398.416 248.72 399.568 248.272C400.624 247.856 401.744 247.648 402.928 247.648C403.76 247.648 404.592 247.824 405.424 248.176C406.288 248.496 406.944 249.12 407.392 250.048L417.76 276.064L419.104 275.92V249.952ZM449.966 278.32C449.966 279.088 450.206 279.808 450.686 280.48C451.198 281.152 452.046 281.488 453.23 281.488H459.23C460.414 281.488 461.246 281.2 461.726 280.624C462.238 280.016 462.494 279.328 462.494 278.56V278.032C462.494 276.528 463.374 275.776 465.134 275.776C466.894 275.776 467.774 276.528 467.774 278.032V278.608C467.774 279.952 467.55 281.056 467.102 281.92C466.686 282.784 466.046 283.536 465.182 284.176C463.486 285.392 461.79 286 460.094 286H452.03C450.334 286 448.686 285.392 447.086 284.176C446.318 283.536 445.726 282.736 445.31 281.776C444.894 280.784 444.686 279.648 444.686 278.368V264.688C444.686 262.096 445.486 260.176 447.086 258.928C447.886 258.352 448.702 257.904 449.534 257.584C450.398 257.232 451.23 257.056 452.03 257.056H460.094C460.862 257.056 461.71 257.216 462.638 257.536C463.566 257.824 464.43 258.224 465.23 258.736C465.998 259.28 466.606 260.032 467.054 260.992C467.534 261.952 467.774 263.088 467.774 264.4V270.88C467.774 271.616 467.55 272.272 467.102 272.848C466.686 273.424 465.902 273.712 464.75 273.712H454.382C453.23 273.712 452.622 272.96 452.558 271.456C452.558 269.952 453.166 269.2 454.382 269.2H462.542L462.494 264.736C462.494 263.936 462.238 263.216 461.726 262.576C461.246 261.904 460.414 261.568 459.23 261.568H453.23C452.046 261.568 451.198 261.904 450.686 262.576C450.206 263.216 449.966 263.936 449.966 264.736V278.32ZM493.377 261.616V279.088C493.377 279.92 493.553 280.56 493.905 281.008C494.257 281.456 495.009 281.68 496.161 281.68H497.409C498.657 281.68 499.249 282.416 499.185 283.888C499.185 285.392 498.593 286.144 497.409 286.144H495.825C494.801 286.144 493.841 286.016 492.945 285.76C492.049 285.472 491.185 285.072 490.353 284.56V284.608C488.785 283.584 488.001 281.76 488.001 279.136V261.616H486.129C484.977 261.616 484.369 260.864 484.305 259.36C484.305 257.856 484.913 257.104 486.129 257.104H488.001V251.968C488.001 250.432 488.913 249.664 490.737 249.664C492.497 249.664 493.377 250.432 493.377 251.968V257.104H497.361C498.609 257.104 499.201 257.856 499.137 259.36C499.137 260.864 498.545 261.616 497.361 261.616H493.377ZM526.635 284.512L526.683 284.464C526.459 285.2 526.027 285.68 525.387 285.904C524.747 286.128 524.107 286.24 523.467 286.24C522.859 286.24 522.219 286.128 521.547 285.904C520.907 285.68 520.491 285.2 520.299 284.464L520.347 284.512L514.059 259.648C513.675 258.304 514.299 257.408 515.931 256.96C517.499 256.544 518.507 257.088 518.955 258.592V258.544L522.843 274.192H524.139L528.027 258.544C528.187 257.872 528.539 257.44 529.083 257.248C529.659 257.024 530.187 256.912 530.667 256.912C531.211 256.912 531.739 257.04 532.251 257.296C532.795 257.52 533.163 257.936 533.355 258.544C533.643 259.696 533.899 260.768 534.123 261.76C534.379 262.752 534.619 263.712 534.843 264.64C535.067 265.568 535.275 266.48 535.467 267.376C535.691 268.272 535.931 269.2 536.187 270.16L537.243 274.24H538.539C539.179 271.648 539.819 269.04 540.459 266.416C541.131 263.76 541.787 261.136 542.427 258.544L542.379 258.592C542.827 257.088 543.835 256.544 545.403 256.96C547.035 257.344 547.659 258.24 547.275 259.648L541.035 284.512L541.083 284.464C540.891 285.2 540.459 285.68 539.787 285.904C539.147 286.128 538.507 286.24 537.867 286.24C537.259 286.24 536.635 286.128 535.995 285.904C535.355 285.68 534.923 285.2 534.699 284.464L534.747 284.512L531.339 271.024H530.043L526.635 284.512ZM579.568 257.104C580.4 257.104 581.248 257.28 582.112 257.632C583.008 257.984 583.872 258.432 584.704 258.976H584.656C585.488 259.584 586.128 260.384 586.576 261.376C587.024 262.336 587.248 263.456 587.248 264.736V278.368C587.248 280.992 586.384 282.928 584.656 284.176C582.96 285.392 581.264 286 579.568 286H571.888C571.056 286 570.208 285.856 569.344 285.568C568.48 285.28 567.632 284.816 566.8 284.176C565.072 282.96 564.208 281.024 564.208 278.368V264.736C564.208 263.456 564.432 262.336 564.88 261.376C565.328 260.384 565.968 259.584 566.8 258.976H566.752C567.552 258.432 568.4 257.984 569.296 257.632C570.192 257.28 571.056 257.104 571.888 257.104H579.568ZM578.704 281.488C579.888 281.488 580.72 281.152 581.2 280.48C581.712 279.808 581.968 279.088 581.968 278.32V264.784C581.968 263.984 581.712 263.264 581.2 262.624C580.72 261.952 579.888 261.616 578.704 261.616H572.752C571.568 261.616 570.72 261.952 570.208 262.624C569.728 263.264 569.488 263.984 569.488 264.784V278.32C569.488 279.088 569.728 279.808 570.208 280.48C570.72 281.152 571.568 281.488 572.752 281.488H578.704ZM611.701 283.984C611.701 285.52 610.821 286.288 609.061 286.288C607.237 286.288 606.325 285.52 606.325 283.984V264.112C606.325 261.488 607.109 259.664 608.677 258.64C610.245 257.616 612.053 257.104 614.101 257.104H619.573C620.757 257.104 621.349 257.856 621.349 259.36C621.413 260.864 620.821 261.616 619.573 261.616H614.485C613.333 261.616 612.581 261.84 612.229 262.288C611.877 262.736 611.701 263.36 611.701 264.16V283.984ZM643.888 277.984V284.08C643.888 285.584 643.008 286.336 641.248 286.336C639.488 286.336 638.608 285.584 638.608 284.08V249.904C638.608 248.368 639.488 247.6 641.248 247.6C643.008 247.6 643.888 248.368 643.888 249.904V270.256C644.688 269.296 645.568 268.272 646.528 267.184C647.52 266.064 648.496 264.944 649.456 263.824C650.448 262.672 651.424 261.552 652.384 260.464C653.344 259.344 654.24 258.304 655.072 257.344V257.392C655.648 256.72 656.224 256.384 656.8 256.384C657.12 256.384 657.424 256.464 657.712 256.624C658.032 256.752 658.368 256.944 658.72 257.2H658.672C659.44 257.84 659.824 258.48 659.824 259.12C659.824 259.344 659.776 259.6 659.68 259.888C659.584 260.144 659.424 260.368 659.2 260.56L643.888 277.984ZM659.92 282.784C660.144 283.2 660.256 283.632 660.256 284.08C660.256 284.912 659.776 285.536 658.816 285.952C658.176 286.336 657.6 286.528 657.088 286.528C656.736 286.528 656.4 286.4 656.08 286.144C655.76 285.92 655.504 285.632 655.312 285.28L650.512 276.016C650.224 275.536 650.08 275.056 650.08 274.576C650.08 273.776 650.496 273.104 651.328 272.56C651.552 272.4 651.776 272.256 652 272.128C652.256 272 652.528 271.904 652.816 271.84C653.168 271.776 653.504 271.84 653.824 272.032C654.144 272.224 654.416 272.48 654.64 272.8L659.92 282.784Z" fill="black"/>
</svg>
