<svg width="1529" height="425" viewBox="0 0 1529 425" fill="none" xmlns="http://www.w3.org/2000/svg">
<rect width="1529" height="425" fill="white"/>
<path d="M119.395 343.823L77.5928 92.6103C75.9543 82.7632 88.1695 76.8571 94.8699 84.2568L203.781 204.535C211.958 213.565 199.944 226.597 190.28 219.18L165.088 199.847C158.51 194.799 149 199.488 149 207.78V271.213C149 281.086 161.788 284.986 167.298 276.794L187 247.5L138.232 346.597C133.941 355.316 120.99 353.409 119.395 343.823Z" fill="black"/>
<path d="M285.267 133.892L350.815 362.918C353.69 372.966 341.169 380.134 333.961 372.568L217.731 250.565C209.233 241.644 221.243 228.243 231.038 235.717L257.934 256.24C264.515 261.263 274 256.569 274 248.29V173.91C274 163.782 260.674 160.071 255.439 168.741L226 217.5L266.628 132.338C270.593 124.027 282.733 125.039 285.267 133.892Z" fill="black"/>
<path d="M393.312 276H380.5V186.375H393.312L447.188 255.875V186.375H460V276H447.188L393.312 206.5V276ZM559.812 263.188C559.812 264.938 559.479 266.604 558.812 268.188C558.146 269.729 557.229 271.083 556.062 272.25C554.896 273.417 553.521 274.333 551.938 275C550.396 275.667 548.75 276 547 276H495.812C494.062 276 492.396 275.667 490.812 275C489.271 274.333 487.917 273.417 486.75 272.25C485.583 271.083 484.667 269.729 484 268.188C483.333 266.604 483 264.938 483 263.188V199.188C483 197.438 483.333 195.792 484 194.25C484.667 192.667 485.583 191.312 486.75 190.188C487.917 189.021 489.271 188.104 490.812 187.438C492.396 186.729 494.062 186.375 495.812 186.375H547C548.75 186.375 550.396 186.729 551.938 187.438C553.521 188.104 554.896 189.021 556.062 190.188C557.229 191.312 558.146 192.667 558.812 194.25C559.479 195.792 559.812 197.438 559.812 199.188V263.188ZM495.812 199.188V263.188H547V199.188H495.812ZM595.688 186.375V276H582.875V186.375H595.688ZM631.562 237.625C629.812 237.625 628.146 237.292 626.562 236.625C625.021 235.917 623.667 235 622.5 233.875C621.333 232.708 620.417 231.354 619.75 229.812C619.083 228.229 618.75 226.562 618.75 224.812V199.188C618.75 197.438 619.083 195.792 619.75 194.25C620.417 192.667 621.333 191.312 622.5 190.188C623.667 189.021 625.021 188.104 626.562 187.438C628.146 186.729 629.812 186.375 631.562 186.375H675.062C676.812 186.375 678.458 186.729 680 187.438C681.583 188.104 682.958 189.021 684.125 190.188C685.292 191.312 686.208 192.667 686.875 194.25C687.542 195.792 687.875 197.438 687.875 199.188V210.75H675.062V199.188H631.562V224.812H675.062C676.812 224.812 678.458 225.146 680 225.812C681.583 226.479 682.958 227.396 684.125 228.562C685.292 229.729 686.208 231.104 686.875 232.688C687.542 234.229 687.875 235.875 687.875 237.625V263.188C687.875 264.938 687.542 266.604 686.875 268.188C686.208 269.729 685.292 271.083 684.125 272.25C682.958 273.417 681.583 274.333 680 275C678.458 275.667 676.812 276 675.062 276H630.312C628.562 276 626.896 275.667 625.312 275C623.771 274.333 622.417 273.417 621.25 272.25C620.083 271.083 619.167 269.729 618.5 268.188C617.833 266.604 617.5 264.938 617.5 263.188V251.688H630.312V263.188H675.062V237.625H631.562Z" fill="black"/>
<path d="M803.312 276H790.5V186.375H803.312L857.188 255.875V186.375H870V276H857.188L803.312 206.5V276ZM948.062 249H904V263.688H948.062V276H904C902.333 276 900.75 275.688 899.25 275.062C897.75 274.396 896.438 273.521 895.312 272.438C894.229 271.312 893.354 270 892.688 268.5C892.062 267 891.75 265.396 891.75 263.688V221.75C891.75 220.042 892.062 218.438 892.688 216.938C893.354 215.438 894.229 214.146 895.312 213.062C896.438 211.938 897.75 211.062 899.25 210.438C900.75 209.771 902.333 209.438 904 209.438H935.75C937.458 209.438 939.062 209.771 940.562 210.438C942.062 211.062 943.354 211.938 944.438 213.062C945.562 214.146 946.438 215.438 947.062 216.938C947.729 218.438 948.062 220.042 948.062 221.75V249ZM904 221.75V236.688H935.75V221.75H904ZM964.75 209.438H981V188.938H993.312V209.438H1015.19V221.75H993.312V263.688H1015.19V276H993.312C991.646 276 990.062 275.688 988.562 275.062C987.062 274.396 985.75 273.521 984.625 272.438C983.5 271.312 982.604 270 981.938 268.5C981.312 267 981 265.396 981 263.688V221.75H964.75V209.438ZM1049.56 276L1028.06 209.438H1040.5L1056.25 259.625L1070.94 209.438H1083.5L1098.19 259.625L1113.94 209.438H1126.38L1104.88 276H1092.06L1077.19 227.125L1062.38 276H1049.56ZM1196.81 263.688C1196.81 265.396 1196.48 267 1195.81 268.5C1195.19 270 1194.31 271.312 1193.19 272.438C1192.1 273.521 1190.81 274.396 1189.31 275.062C1187.85 275.688 1186.27 276 1184.56 276H1151.5C1149.83 276 1148.25 275.688 1146.75 275.062C1145.25 274.396 1143.94 273.521 1142.81 272.438C1141.73 271.312 1140.85 270 1140.19 268.5C1139.56 267 1139.25 265.396 1139.25 263.688V221.75C1139.25 220.042 1139.56 218.438 1140.19 216.938C1140.85 215.438 1141.73 214.146 1142.81 213.062C1143.94 211.938 1145.25 211.062 1146.75 210.438C1148.25 209.771 1149.83 209.438 1151.5 209.438H1184.56C1186.27 209.438 1187.85 209.771 1189.31 210.438C1190.81 211.062 1192.1 211.938 1193.19 213.062C1194.31 214.146 1195.19 215.438 1195.81 216.938C1196.48 218.438 1196.81 220.042 1196.81 221.75V263.688ZM1151.5 221.75V263.688H1184.56V221.75H1151.5ZM1229.62 221.75V276H1217.38V209.438H1229.62V221.188C1229.71 219.562 1230.08 218.042 1230.75 216.625C1231.42 215.167 1232.29 213.917 1233.38 212.875C1234.5 211.792 1235.79 210.958 1237.25 210.375C1238.71 209.75 1240.27 209.438 1241.94 209.438H1255C1256.71 209.438 1258.29 209.771 1259.75 210.438C1261.25 211.062 1262.56 211.938 1263.69 213.062C1264.81 214.146 1265.69 215.438 1266.31 216.938C1266.98 218.438 1267.31 220.042 1267.31 221.75V233H1255V221.75H1229.62ZM1326.62 276L1294.88 247.562V276H1282.62V183.812H1294.88V235.688L1324.06 209.438H1341.38L1305.62 241.562L1343.94 276H1326.62Z" fill="black"/>
<circle cx="739.5" cy="230.5" r="7.5" fill="black"/>
<circle cx="211" cy="227" r="12" fill="black"/>
<circle cx="226" cy="223" r="2" fill="black"/>
<circle cx="213" cy="208" r="4" fill="black"/>
<circle cx="194" cy="232" r="2" fill="black"/>
<ellipse cx="225.73" cy="196.767" rx="1" ry="23.5" transform="rotate(24.7044 225.73 196.767)" fill="black"/>
<ellipse cx="196.46" cy="254.44" rx="1" ry="23.5" transform="rotate(26.7214 196.46 254.44)" fill="black"/>
</svg>
